<svg width="48" height="48" viewBox="0 0 48 48" fill="none" xmlns="http://www.w3.org/2000/svg">
    <path opacity="0.2" d="M40.5 25.5C40.5 28.7634 39.5323 31.9535 37.7193 34.6669C35.9062 37.3803 33.3293 39.4952 30.3143 40.744C27.2993 41.9929 23.9817 42.3196 20.781 41.683C17.5803 41.0463 14.6403 39.4748 12.3327 37.1673C10.0252 34.8597 8.45371 31.9197 7.81705 28.719C7.18039 25.5183 7.50715 22.2007 8.756 19.1857C10.0048 16.1707 12.1197 13.5938 14.8331 11.7808C17.5465 9.96771 20.7366 9 24 9C28.3761 9 32.5729 10.7384 35.6673 13.8327C38.7616 16.9271 40.5 21.1239 40.5 25.5Z" fill="#616F82"/>
    <path d="M24 7.5C20.4399 7.5 16.9598 8.55568 13.9997 10.5335C11.0397 12.5114 8.73255 15.3226 7.37018 18.6117C6.0078 21.9008 5.65134 25.52 6.34587 29.0116C7.04041 32.5033 8.75474 35.7106 11.2721 38.2279C13.7894 40.7453 16.9967 42.4596 20.4884 43.1541C23.98 43.8487 27.5992 43.4922 30.8883 42.1298C34.1774 40.7675 36.9886 38.4604 38.9665 35.5003C40.9443 32.5402 42 29.0601 42 25.5C41.9946 20.7278 40.0964 16.1526 36.7219 12.7781C33.3474 9.40364 28.7722 7.50546 24 7.5ZM24 40.5C21.0333 40.5 18.1332 39.6203 15.6665 37.972C13.1997 36.3238 11.2771 33.9811 10.1418 31.2403C9.0065 28.4994 8.70945 25.4834 9.28823 22.5736C9.86701 19.6639 11.2956 16.9912 13.3934 14.8934C15.4912 12.7956 18.1639 11.367 21.0737 10.7882C23.9834 10.2094 26.9994 10.5065 29.7403 11.6418C32.4812 12.7771 34.8238 14.6997 36.4721 17.1664C38.1203 19.6332 39 22.5333 39 25.5C38.9955 29.4769 37.4138 33.2896 34.6017 36.1017C31.7896 38.9137 27.9769 40.4955 24 40.5ZM32.5613 16.9388C32.7007 17.0781 32.8114 17.2435 32.8869 17.4256C32.9623 17.6077 33.0012 17.8029 33.0012 18C33.0012 18.1971 32.9623 18.3923 32.8869 18.5744C32.8114 18.7565 32.7007 18.9219 32.5613 19.0613L25.0613 26.5613C24.9219 26.7006 24.7564 26.8112 24.5744 26.8866C24.3923 26.962 24.1971 27.0008 24 27.0008C23.8029 27.0008 23.6078 26.962 23.4257 26.8866C23.2436 26.8112 23.0781 26.7006 22.9388 26.5613C22.7994 26.4219 22.6888 26.2564 22.6134 26.0743C22.538 25.8923 22.4992 25.6971 22.4992 25.5C22.4992 25.3029 22.538 25.1077 22.6134 24.9257C22.6888 24.7436 22.7994 24.5781 22.9388 24.4388L30.4388 16.9388C30.5781 16.7993 30.7435 16.6886 30.9256 16.6132C31.1077 16.5377 31.3029 16.4988 31.5 16.4988C31.6971 16.4988 31.8923 16.5377 32.0744 16.6132C32.2565 16.6886 32.422 16.7993 32.5613 16.9388ZM18 3C18 2.60218 18.158 2.22064 18.4394 1.93934C18.7207 1.65804 19.1022 1.5 19.5 1.5H28.5C28.8978 1.5 29.2794 1.65804 29.5607 1.93934C29.842 2.22064 30 2.60218 30 3C30 3.39782 29.842 3.77936 29.5607 4.06066C29.2794 4.34196 28.8978 4.5 28.5 4.5H19.5C19.1022 4.5 18.7207 4.34196 18.4394 4.06066C18.158 3.77936 18 3.39782 18 3Z" fill="#616F82"/>
</svg>
