<svg width="24" height="24" viewBox="0 0 24 24" fill="none" xmlns="http://www.w3.org/2000/svg">
    <path opacity="0.2" d="M22.499 12.375C22.499 14.2387 19.1409 15.75 14.999 15.75C13.1615 15.75 11.4778 15.4528 10.1737 14.9587C13.7578 14.7047 16.499 13.3125 16.499 11.625V9.0675C19.9228 9.38063 22.499 10.7419 22.499 12.375ZM16.499 7.875C16.499 6.01125 13.1409 4.5 8.99902 4.5C4.85715 4.5 1.49902 6.01125 1.49902 7.875C1.49902 9.73875 4.85715 11.25 8.99902 11.25C13.1409 11.25 16.499 9.73875 16.499 7.875Z" fill="white"/>
    <path d="M17.249 8.39719V7.875C17.249 5.52375 13.7025 3.75 8.99902 3.75C4.29559 3.75 0.749023 5.52375 0.749023 7.875V11.625C0.749023 13.5834 3.20996 15.1397 6.74902 15.6056V16.125C6.74902 18.4762 10.2956 20.25 14.999 20.25C19.7025 20.25 23.249 18.4762 23.249 16.125V12.375C23.249 10.4344 20.8659 8.87625 17.249 8.39719ZM21.749 12.375C21.749 13.6144 18.8625 15 14.999 15C14.6493 15 14.3025 14.9878 13.9603 14.9653C15.9825 14.2284 17.249 13.0312 17.249 11.625V9.91313C20.0493 10.3303 21.749 11.4628 21.749 12.375ZM6.74902 14.0859V11.8556C7.49507 11.9528 8.24668 12.0011 8.99902 12C9.75137 12.0011 10.503 11.9528 11.249 11.8556V14.0859C10.5041 14.196 9.75204 14.2508 8.99902 14.25C8.24601 14.2508 7.49396 14.196 6.74902 14.0859ZM15.749 10.3059V11.625C15.749 12.4116 14.5856 13.2562 12.749 13.7691V11.5781C13.9593 11.2847 14.984 10.8478 15.749 10.3059ZM8.99902 5.25C12.8625 5.25 15.749 6.63562 15.749 7.875C15.749 9.11438 12.8625 10.5 8.99902 10.5C5.13559 10.5 2.24902 9.11438 2.24902 7.875C2.24902 6.63562 5.13559 5.25 8.99902 5.25ZM2.24902 11.625V10.3059C3.01402 10.8478 4.03871 11.2847 5.24902 11.5781V13.7691C3.41246 13.2562 2.24902 12.4116 2.24902 11.625ZM8.24902 16.125V15.7341C8.49559 15.7434 8.74496 15.75 8.99902 15.75C9.36277 15.75 9.71809 15.7378 10.0668 15.7172C10.4543 15.8559 10.8489 15.9736 11.249 16.0697V18.2691C9.41246 17.7562 8.24902 16.9116 8.24902 16.125ZM12.749 18.5859V16.35C13.4948 16.4503 14.2465 16.5004 14.999 16.5C15.7514 16.5011 16.503 16.4528 17.249 16.3556V18.5859C15.757 18.8047 14.241 18.8047 12.749 18.5859ZM18.749 18.2691V16.0781C19.9593 15.7847 20.984 15.3478 21.749 14.8059V16.125C21.749 16.9116 20.5856 17.7562 18.749 18.2691Z" fill="#0A0B0D"/>
</svg>
