<svg width="33" height="33" viewBox="0 0 33 33" fill="none" xmlns="http://www.w3.org/2000/svg">
    <g clip-path="url(#clip0_259_4643)">
        <path opacity="0.2" d="M2.23959 19.2915H6.23959V26.2915H2.23959C1.97438 26.2915 1.72002 26.1862 1.53249 25.9987C1.34495 25.8111 1.23959 25.5568 1.23959 25.2915V20.2915C1.23959 20.0263 1.34495 19.772 1.53249 19.5844C1.72002 19.3969 1.97438 19.2915 2.23959 19.2915ZM25.7396 7.29155C25.2207 7.29187 24.7083 7.40758 24.2396 7.6303C24.2056 6.87963 23.9308 6.15985 23.4561 5.57741C22.9813 4.99497 22.3316 4.58079 21.6032 4.39614C20.8749 4.21149 20.1064 4.26616 19.4114 4.55208C18.7165 4.838 18.1321 5.33998 17.7446 5.98377C17.357 6.62757 17.187 7.379 17.2596 8.12692C17.3321 8.87484 17.6435 9.57954 18.1476 10.1368C18.6517 10.6941 19.3218 11.0743 20.0587 11.2212C20.7956 11.3682 21.5603 11.2741 22.2396 10.9528C22.2712 11.6373 22.503 12.2974 22.9062 12.8514C23.3095 13.4054 23.8665 13.8288 24.5082 14.0692C25.1498 14.3095 25.8479 14.3562 26.5159 14.2035C27.1839 14.0508 27.7924 13.7054 28.2658 13.2101C28.7393 12.7148 29.057 12.0914 29.1795 11.4172C29.302 10.743 29.2239 10.0478 28.9549 9.41755C28.6859 8.78735 28.2379 8.24997 27.6663 7.87204C27.0947 7.49412 26.4248 7.29228 25.7396 7.29155Z" fill="#616F82"/>
        <path d="M29.0308 17.9238C28.6587 17.6375 28.2256 17.4408 27.7651 17.3491C27.3047 17.2574 26.8293 17.2731 26.3758 17.395L21.1458 18.5975C21.2675 18.0835 21.2713 17.5486 21.1568 17.033C21.0424 16.5173 20.8127 16.0342 20.485 15.6199C20.1573 15.2056 19.7401 14.8709 19.2646 14.6408C18.7892 14.4107 18.2678 14.2912 17.7396 14.2913H11.4821C10.9566 14.2899 10.436 14.3928 9.95051 14.5938C9.46498 14.7948 9.0241 15.0901 8.65334 15.4625L5.82584 18.2913H2.23959C1.70916 18.2913 1.20045 18.502 0.82538 18.8771C0.450307 19.2521 0.239594 19.7608 0.239594 20.2913L0.239594 25.2913C0.239594 25.8217 0.450307 26.3304 0.82538 26.7055C1.20045 27.0806 1.70916 27.2913 2.23959 27.2913H15.2396C15.3214 27.2913 15.4028 27.2812 15.4821 27.2613L23.4821 25.2613C23.5331 25.2491 23.5829 25.2324 23.6308 25.2113L28.4896 23.1438L28.5446 23.1188C29.0116 22.8854 29.4114 22.5371 29.7065 22.1065C30.0017 21.6759 30.1823 21.1772 30.2314 20.6575C30.2806 20.1379 30.1966 19.6142 29.9874 19.1359C29.7783 18.6576 29.4508 18.2405 29.0358 17.9238H29.0308ZM2.23959 20.2913H5.23959V25.2913H2.23959V20.2913ZM27.6683 21.3175L22.9183 23.34L15.1146 25.2913H7.23959V19.705L10.0683 16.8775C10.2534 16.691 10.4737 16.5431 10.7164 16.4425C10.9591 16.3418 11.2194 16.2904 11.4821 16.2913H17.7396C18.1374 16.2913 18.5189 16.4493 18.8003 16.7306C19.0816 17.0119 19.2396 17.3934 19.2396 17.7913C19.2396 18.1891 19.0816 18.5706 18.8003 18.8519C18.5189 19.1332 18.1374 19.2913 17.7396 19.2913H14.2396C13.9744 19.2913 13.72 19.3966 13.5325 19.5842C13.345 19.7717 13.2396 20.026 13.2396 20.2913C13.2396 20.5565 13.345 20.8108 13.5325 20.9984C13.72 21.1859 13.9744 21.2913 14.2396 21.2913H18.2396C18.3149 21.2911 18.3899 21.2827 18.4633 21.2663L26.8383 19.34L26.8771 19.33C27.1328 19.259 27.4056 19.2851 27.6432 19.4032C27.8808 19.5214 28.0663 19.7232 28.1641 19.9698C28.2618 20.2165 28.2649 20.4906 28.1727 20.7394C28.0804 20.9882 27.8995 21.1941 27.6646 21.3175H27.6683ZM20.7396 12.2913C20.9867 12.2915 21.2333 12.2715 21.4771 12.2313C21.7513 13.0457 22.2529 13.7646 22.9228 14.3029C23.5926 14.8413 24.4025 15.1766 25.2569 15.2692C26.1112 15.3619 26.9742 15.2079 27.7438 14.8256C28.5135 14.4433 29.1575 13.8486 29.5999 13.1119C30.0422 12.3751 30.2644 11.5271 30.2401 10.6681C30.2158 9.80913 29.946 8.97505 29.4627 8.26451C28.9794 7.55396 28.3027 6.99666 27.5127 6.6585C26.7227 6.32035 25.8523 6.21546 25.0046 6.35626C24.7406 5.57157 24.2652 4.87492 23.6308 4.34298C22.9964 3.81104 22.2275 3.46444 21.4088 3.34131C20.5901 3.21818 19.7533 3.32329 18.9904 3.64509C18.2276 3.96689 17.5684 4.49289 17.0852 5.16522C16.6021 5.83754 16.3138 6.63012 16.2521 7.45573C16.1903 8.28134 16.3576 9.10798 16.7353 9.84468C17.1131 10.5814 17.6868 11.1996 18.3933 11.6312C19.0998 12.0629 19.9117 12.2913 20.7396 12.2913ZM28.2396 10.7913C28.2396 11.2857 28.093 11.7691 27.8183 12.1802C27.5436 12.5913 27.1531 12.9117 26.6963 13.101C26.2395 13.2902 25.7368 13.3397 25.2519 13.2432C24.7669 13.1468 24.3215 12.9087 23.9718 12.559C23.6222 12.2094 23.3841 11.7639 23.2876 11.279C23.1912 10.794 23.2407 10.2914 23.4299 9.83455C23.6191 9.37774 23.9395 8.98729 24.3507 8.71259C24.7618 8.43788 25.2451 8.29126 25.7396 8.29126C26.4026 8.29126 27.0385 8.55465 27.5074 9.0235C27.9762 9.49234 28.2396 10.1282 28.2396 10.7913ZM20.7396 5.29126C21.285 5.29153 21.8153 5.47014 22.2497 5.79986C22.6842 6.12958 22.9989 6.59231 23.1458 7.11751C22.6337 7.47788 22.2024 7.94118 21.8795 8.47778C21.5566 9.01438 21.3493 9.61246 21.2708 10.2338C21.0963 10.2715 20.9182 10.2907 20.7396 10.2913C20.0766 10.2913 19.4407 10.0279 18.9718 9.55903C18.503 9.09019 18.2396 8.4543 18.2396 7.79126C18.2396 7.12822 18.503 6.49234 18.9718 6.0235C19.4407 5.55465 20.0766 5.29126 20.7396 5.29126Z" fill="#616F82"/>
    </g>
    <defs>
        <clipPath id="clip0_259_4643">
            <rect width="32" height="32" fill="white" transform="translate(0.239594 0.29126)"/>
        </clipPath>
    </defs>
</svg>
