<svg width="17" height="17" viewBox="0 0 17 17" fill="none" xmlns="http://www.w3.org/2000/svg">
    <path opacity="0.2" d="M14.0121 7.83198L8.24777 11.9045L2.4834 7.83198L3.59152 3.59198C3.60446 3.54112 3.63335 3.49574 3.67395 3.4625C3.71455 3.42925 3.76473 3.40988 3.81714 3.40722C3.86955 3.40457 3.92143 3.41877 3.96519 3.44774C4.00894 3.47671 4.04226 3.51894 4.06027 3.56823L5.2884 6.90448H11.2071L12.4353 3.56823C12.4528 3.51818 12.4861 3.47515 12.5301 3.44557C12.5741 3.41599 12.6265 3.40145 12.6795 3.40412C12.7324 3.40679 12.7831 3.42654 12.8239 3.4604C12.8647 3.49426 12.8935 3.54042 12.9059 3.59198L14.0121 7.83198Z" fill="#0F61FF"/>
    <path d="M14.6319 8.22329L13.3882 3.46704C13.3486 3.31256 13.2606 3.17483 13.137 3.07403C13.0134 2.97322 12.8608 2.91465 12.7016 2.90689C12.5423 2.89913 12.3847 2.9426 12.252 3.03092C12.1192 3.11924 12.0182 3.24777 11.9638 3.39766L10.8588 6.40454H5.63629L4.53129 3.39641C4.47677 3.24654 4.37567 3.11807 4.24281 3.02985C4.10996 2.94163 3.95233 2.89829 3.79304 2.90619C3.63376 2.91409 3.48119 2.97281 3.35772 3.07374C3.23424 3.17467 3.14634 3.31251 3.10691 3.46704L1.86316 8.22329C1.67947 8.92326 1.71257 9.6625 1.95809 10.3433C2.20361 11.024 2.64997 11.6142 3.23816 12.0358L7.81754 15.2708C7.94315 15.3595 8.09314 15.4071 8.24691 15.4071C8.40068 15.4071 8.55068 15.3595 8.67629 15.2708L13.2557 12.0358C13.8441 11.6144 14.2907 11.0242 14.5364 10.3435C14.7822 9.66271 14.8155 8.92338 14.6319 8.22329ZM3.87254 4.49829L4.81816 7.07704C4.85348 7.1731 4.91742 7.25602 5.00136 7.31459C5.0853 7.37316 5.18519 7.40455 5.28754 7.40454H11.2075C11.3099 7.40455 11.4098 7.37316 11.4937 7.31459C11.5777 7.25602 11.6416 7.1731 11.6769 7.07704L12.6225 4.49829L13.4394 7.62329L8.24754 11.2927L3.05379 7.62329L3.87254 4.49829ZM2.79004 8.66141L7.38066 11.9045L6.08566 12.8202L3.81566 11.217C3.41954 10.9325 3.11268 10.5411 2.93103 10.0884C2.74939 9.63583 2.70048 9.14082 2.79004 8.66141ZM8.24754 14.3489L6.95191 13.4333L8.24754 12.517L9.54316 13.432L8.24754 14.3489ZM12.6794 11.217L10.4094 12.8208L9.11441 11.9045L13.705 8.66079C13.7947 9.14029 13.7459 9.63543 13.5642 10.0882C13.3826 10.5409 13.0757 10.9325 12.6794 11.217Z" fill="#0F61FF"/>
</svg>
