<svg width="33" height="33" viewBox="0 0 33 33" fill="none" xmlns="http://www.w3.org/2000/svg">
    <path opacity="0.2" d="M22.481 12.0696C22.481 13.2563 22.1291 14.4163 21.4698 15.403C20.8105 16.3897 19.8735 17.1587 18.7771 17.6129C17.6808 18.067 16.4744 18.1858 15.3105 17.9543C14.1466 17.7228 13.0775 17.1513 12.2384 16.3122C11.3993 15.4731 10.8278 14.404 10.5963 13.2401C10.3648 12.0762 10.4836 10.8698 10.9377 9.77348C11.3919 8.67712 12.1609 7.74005 13.1476 7.08076C14.1343 6.42147 15.2943 6.06958 16.481 6.06958C18.0723 6.06958 19.5984 6.70172 20.7237 7.82694C21.8489 8.95216 22.481 10.4783 22.481 12.0696Z" fill="#616F82"/>
    <path d="M27.481 12.0698C27.4821 10.216 27.0147 8.39206 26.1222 6.76729C25.2298 5.14253 23.9411 3.76967 22.3761 2.77623C20.811 1.78278 19.0202 1.20097 17.1701 1.08484C15.32 0.968711 13.4706 1.32203 11.7936 2.11197C10.1165 2.90191 8.66637 4.10286 7.57772 5.60327C6.48907 7.10367 5.79726 8.85487 5.56655 10.6942C5.33583 12.5335 5.5737 14.4014 6.25806 16.1242C6.94241 17.8469 8.05106 19.3689 9.48102 20.5485V30.0698C9.4809 30.2403 9.52439 30.4081 9.60738 30.557C9.69036 30.706 9.81006 30.8313 9.95512 30.921C10.1002 31.0107 10.2658 31.0618 10.4361 31.0695C10.6065 31.0771 10.776 31.0411 10.9285 30.9648L16.481 28.1948L22.0348 30.971C22.174 31.0376 22.3267 31.0714 22.481 31.0698C22.7462 31.0698 23.0006 30.9644 23.1881 30.7769C23.3757 30.5893 23.481 30.335 23.481 30.0698V20.5485C24.7322 19.5181 25.7397 18.2234 26.4313 16.7574C27.1229 15.2915 27.4814 13.6906 27.481 12.0698ZM7.48102 12.0698C7.48102 10.2897 8.00886 8.54967 8.99779 7.06963C9.98673 5.58959 11.3923 4.43604 13.0369 3.75485C14.6814 3.07366 16.491 2.89543 18.2368 3.2427C19.9827 3.58996 21.5863 4.44713 22.845 5.7058C24.1037 6.96448 24.9608 8.56812 25.3081 10.314C25.6554 12.0598 25.4771 13.8694 24.7959 15.5139C24.1148 17.1585 22.9612 18.5641 21.4812 19.553C20.0011 20.5419 18.2611 21.0698 16.481 21.0698C14.0949 21.0671 11.8072 20.1181 10.12 18.4308C8.43273 16.7435 7.48367 14.4559 7.48102 12.0698ZM21.481 28.4523L16.9273 26.176C16.7883 26.1065 16.6351 26.0703 16.4798 26.0703C16.3244 26.0703 16.1712 26.1065 16.0323 26.176L11.481 28.4523V21.866C13.029 22.6572 14.7426 23.0697 16.481 23.0697C18.2195 23.0697 19.9331 22.6572 21.481 21.866V28.4523ZM16.481 19.0698C17.8655 19.0698 19.2189 18.6592 20.37 17.8901C21.5212 17.1209 22.4184 16.0276 22.9482 14.7485C23.478 13.4695 23.6166 12.062 23.3465 10.7041C23.0764 9.34627 22.4097 8.09898 21.4308 7.12002C20.4518 6.14105 19.2045 5.47436 17.8467 5.20427C16.4888 4.93417 15.0813 5.07279 13.8022 5.60261C12.5232 6.13242 11.4299 7.02963 10.6607 8.18077C9.89156 9.33192 9.48102 10.6853 9.48102 12.0698C9.48301 13.9257 10.2211 15.705 11.5335 17.0173C12.8458 18.3296 14.6251 19.0678 16.481 19.0698ZM16.481 7.06976C17.4699 7.06976 18.4366 7.36301 19.2589 7.91242C20.0811 8.46182 20.722 9.24272 21.1004 10.1563C21.4789 11.07 21.5779 12.0753 21.3849 13.0452C21.192 14.0151 20.7158 14.906 20.0166 15.6053C19.3173 16.3046 18.4264 16.7808 17.4565 16.9737C16.4866 17.1666 15.4812 17.0676 14.5676 16.6892C13.654 16.3107 12.8731 15.6699 12.3237 14.8476C11.7743 14.0254 11.481 13.0587 11.481 12.0698C11.481 10.7437 12.0078 9.47191 12.9455 8.53423C13.8832 7.59655 15.1549 7.06976 16.481 7.06976Z" fill="#616F82"/>
</svg>
