<svg width="19" height="18" viewBox="0 0 19 18" fill="none" xmlns="http://www.w3.org/2000/svg">
    <path d="M6.75001 2.99995C6.74972 2.43892 6.59212 1.8892 6.29511 1.41324C5.99809 0.937272 5.57355 0.554133 5.06972 0.307331C4.56588 0.0605291 4.00293 -0.0400448 3.44481 0.0170313C2.88668 0.0741073 2.35574 0.286546 1.91229 0.630221C1.46884 0.973896 1.13065 1.43504 0.936116 1.96127C0.741586 2.4875 0.698517 3.05774 0.8118 3.60722C0.925082 4.1567 1.19018 4.6634 1.57698 5.06979C1.96378 5.47617 2.45679 5.76594 3.00001 5.9062V12.0937C2.29301 12.2762 1.67687 12.7104 1.26706 13.3147C0.857247 13.919 0.681912 14.6521 0.773918 15.3765C0.865924 16.1008 1.21895 16.7668 1.76683 17.2494C2.31471 17.7321 3.01983 17.9984 3.75001 17.9984C4.48019 17.9984 5.1853 17.7321 5.73318 17.2494C6.28106 16.7668 6.63409 16.1008 6.7261 15.3765C6.8181 14.6521 6.64277 13.919 6.23296 13.3147C5.82315 12.7104 5.207 12.2762 4.50001 12.0937V5.9062C5.14375 5.73899 5.71385 5.36299 6.121 4.83707C6.52816 4.31116 6.74938 3.66505 6.75001 2.99995ZM2.25001 2.99995C2.25001 2.70328 2.33798 2.41327 2.5028 2.1666C2.66763 1.91992 2.90189 1.72767 3.17598 1.61413C3.45007 1.5006 3.75167 1.4709 4.04264 1.52878C4.33361 1.58665 4.60089 1.72951 4.81067 1.93929C5.02045 2.14907 5.16331 2.41635 5.22119 2.70732C5.27906 2.99829 5.24936 3.29989 5.13583 3.57398C5.0223 3.84807 4.83004 4.08234 4.58336 4.24716C4.33669 4.41198 4.04668 4.49995 3.75001 4.49995C3.35218 4.49995 2.97065 4.34192 2.68935 4.06061C2.40804 3.77931 2.25001 3.39778 2.25001 2.99995ZM5.25001 15C5.25001 15.2966 5.16203 15.5866 4.99721 15.8333C4.83239 16.08 4.59812 16.2722 4.32403 16.3858C4.04994 16.4993 3.74834 16.529 3.45737 16.4711C3.1664 16.4133 2.89913 16.2704 2.68935 16.0606C2.47957 15.8508 2.33671 15.5836 2.27883 15.2926C2.22095 15.0016 2.25066 14.7 2.36419 14.4259C2.47772 14.1518 2.66998 13.9176 2.91665 13.7527C3.16333 13.5879 3.45334 13.5 3.75001 13.5C4.14783 13.5 4.52936 13.658 4.81067 13.9393C5.09197 14.2206 5.25001 14.6021 5.25001 15ZM16.5 12.0937V7.37151C16.5015 7.07566 16.4443 6.78244 16.3316 6.50887C16.219 6.23529 16.0531 5.98679 15.8438 5.77777L12.3103 2.24995H15C15.1989 2.24995 15.3897 2.17094 15.5303 2.03028C15.671 1.88963 15.75 1.69887 15.75 1.49995C15.75 1.30104 15.671 1.11028 15.5303 0.969624C15.3897 0.828972 15.1989 0.749954 15 0.749954H10.5C10.3011 0.749954 10.1103 0.828972 9.96968 0.969624C9.82903 1.11028 9.75001 1.30104 9.75001 1.49995V5.99995C9.75001 6.19887 9.82903 6.38963 9.96968 6.53028C10.1103 6.67093 10.3011 6.74995 10.5 6.74995C10.6989 6.74995 10.8897 6.67093 11.0303 6.53028C11.171 6.38963 11.25 6.19887 11.25 5.99995V3.31027L14.7806 6.8437C14.8503 6.91341 14.9055 6.99614 14.9431 7.08719C14.9808 7.17824 15.0001 7.27581 15 7.37433V12.0937C14.293 12.2762 13.6769 12.7104 13.2671 13.3147C12.8572 13.919 12.6819 14.6521 12.7739 15.3765C12.8659 16.1008 13.219 16.7668 13.7668 17.2494C14.3147 17.7321 15.0198 17.9984 15.75 17.9984C16.4802 17.9984 17.1853 17.7321 17.7332 17.2494C18.2811 16.7668 18.6341 16.1008 18.7261 15.3765C18.8181 14.6521 18.6428 13.919 18.233 13.3147C17.8232 12.7104 17.207 12.2762 16.5 12.0937ZM15.75 16.5C15.4533 16.5 15.1633 16.412 14.9167 16.2472C14.67 16.0823 14.4777 15.8481 14.3642 15.574C14.2507 15.2999 14.221 14.9983 14.2788 14.7073C14.3367 14.4163 14.4796 14.1491 14.6893 13.9393C14.8991 13.7295 15.1664 13.5867 15.4574 13.5288C15.7483 13.4709 16.0499 13.5006 16.324 13.6141C16.5981 13.7277 16.8324 13.9199 16.9972 14.1666C17.162 14.4133 17.25 14.7033 17.25 15C17.25 15.3978 17.092 15.7793 16.8107 16.0606C16.5294 16.3419 16.1478 16.5 15.75 16.5Z" fill="#616F82"/>
</svg>
