<svg width="60" height="60" viewBox="0 0 60 60" fill="none" xmlns="http://www.w3.org/2000/svg">
    <path opacity="0.2" d="M51.9516 21.1735L45 28.1251L31.875 15.0001L38.8266 8.0485C39.1782 7.69713 39.6549 7.49976 40.152 7.49976C40.649 7.49976 41.1257 7.69713 41.4773 8.0485L51.9516 18.5157C52.1266 18.6899 52.2655 18.897 52.3603 19.125C52.455 19.3531 52.5038 19.5976 52.5038 19.8446C52.5038 20.0916 52.455 20.3361 52.3603 20.5641C52.2655 20.7922 52.1266 20.9993 51.9516 21.1735Z" fill="black"/>
    <path d="M53.2781 17.196L42.8039 6.72414C42.4557 6.37583 42.0423 6.09953 41.5872 5.91102C41.1322 5.72251 40.6445 5.62549 40.152 5.62549C39.6594 5.62549 39.1717 5.72251 38.7167 5.91102C38.2617 6.09953 37.8482 6.37583 37.5 6.72414L8.59924 35.6249C8.2495 35.9719 7.97222 36.3849 7.78352 36.84C7.59481 37.295 7.49845 37.7831 7.50002 38.2757V48.7499C7.50002 49.7445 7.89511 50.6983 8.59837 51.4016C9.30163 52.1048 10.2555 52.4999 11.25 52.4999H21.7242C22.2169 52.5015 22.7049 52.4051 23.16 52.2164C23.615 52.0277 24.0281 51.7504 24.375 51.4007L43.9852 31.7929L44.8008 35.0507L36.1758 43.6734C35.824 44.0249 35.6262 44.5018 35.626 44.9991C35.6258 45.4964 35.8231 45.9735 36.1746 46.3253C36.5261 46.6771 37.003 46.8749 37.5004 46.8751C37.9977 46.8754 38.4748 46.678 38.8266 46.3265L48.2016 36.9515C48.4309 36.7226 48.597 36.4382 48.6836 36.126C48.7703 35.8139 48.7746 35.4846 48.6961 35.1702L47.0789 28.6991L53.2781 22.4999C53.6265 22.1517 53.9028 21.7383 54.0913 21.2832C54.2798 20.8282 54.3768 20.3405 54.3768 19.848C54.3768 19.3554 54.2798 18.8677 54.0913 18.4127C53.9028 17.9577 53.6265 17.5442 53.2781 17.196ZM11.25 48.7499V42.0257L17.9742 48.7499H11.25ZM22.5 47.9741L12.0258 37.4999L31.875 17.6507L42.3492 28.1249L22.5 47.9741ZM45 25.4741L34.5281 14.9999L40.1531 9.37492L50.625 19.8491L45 25.4741Z" fill="black"/>
</svg>
