<svg width="33" height="32" viewBox="0 0 33 32" fill="none" xmlns="http://www.w3.org/2000/svg">
    <g clip-path="url(#clip0_308_4571)">
        <path opacity="0.2" d="M30.3334 14V18C30.3334 18.5304 30.1227 19.0391 29.7476 19.4142C29.3725 19.7893 28.8638 20 28.3334 20H27.3334L25.0709 26.3363C25.0015 26.5306 24.8736 26.6988 24.7049 26.8176C24.5362 26.9364 24.3348 27.0002 24.1284 27H22.5384C22.332 27.0002 22.1306 26.9364 21.9619 26.8176C21.7931 26.6988 21.6653 26.5306 21.5959 26.3363L21.1196 25H12.5471L12.0709 26.3363C12.0015 26.5306 11.8736 26.6988 11.7049 26.8176C11.5362 26.9364 11.3348 27.0002 11.1284 27H9.53838C9.33199 27.0002 9.13061 26.9364 8.96186 26.8176C8.79312 26.6988 8.66528 26.5306 8.59588 26.3363L6.95838 21.75C5.26756 19.909 4.33059 17.4996 4.33338 15C4.33338 12.3478 5.38695 9.8043 7.26231 7.92893C9.13768 6.05357 11.6812 5 14.3334 5H18.3334C20.2847 4.99944 22.1936 5.56981 23.8248 6.64083C25.456 7.71185 26.7382 9.23671 27.5134 11.0275C27.6505 11.3454 27.7715 11.6699 27.8759 12H28.3334C28.8638 12 29.3725 12.2107 29.7476 12.5858C30.1227 12.9609 30.3334 13.4696 30.3334 14Z" fill="#616F82"/>
        <path d="M24.3334 14.5C24.3334 14.7967 24.2454 15.0867 24.0806 15.3334C23.9158 15.58 23.6815 15.7723 23.4074 15.8858C23.1333 15.9994 22.8317 16.0291 22.5407 15.9712C22.2498 15.9133 21.9825 15.7704 21.7727 15.5607C21.5629 15.3509 21.4201 15.0836 21.3622 14.7926C21.3043 14.5017 21.334 14.2001 21.4476 13.926C21.5611 13.6519 21.7533 13.4176 22 13.2528C22.2467 13.088 22.5367 13 22.8334 13C23.2312 13 23.6127 13.158 23.894 13.4393C24.1753 13.7206 24.3334 14.1022 24.3334 14.5ZM19.3334 8H14.3334C14.0682 8 13.8138 8.10536 13.6263 8.29289C13.4387 8.48043 13.3334 8.73478 13.3334 9C13.3334 9.26522 13.4387 9.51957 13.6263 9.70711C13.8138 9.89464 14.0682 10 14.3334 10H19.3334C19.5986 10 19.8529 9.89464 20.0405 9.70711C20.228 9.51957 20.3334 9.26522 20.3334 9C20.3334 8.73478 20.228 8.48043 20.0405 8.29289C19.8529 8.10536 19.5986 8 19.3334 8ZM31.3334 14V18C31.3334 18.7956 31.0173 19.5587 30.4547 20.1213C29.8921 20.6839 29.129 21 28.3334 21H28.0384L26.0121 26.6725C25.8734 27.061 25.6179 27.3972 25.2807 27.6348C24.9434 27.8725 24.5409 28 24.1284 28H22.5384C22.1258 28 21.7233 27.8725 21.3861 27.6348C21.0488 27.3972 20.7934 27.061 20.6546 26.6725L20.4146 26H13.2521L13.0121 26.6725C12.8734 27.061 12.6179 27.3972 12.2807 27.6348C11.9434 27.8725 11.5409 28 11.1284 28H9.53838C9.12581 28 8.72332 27.8725 8.38608 27.6348C8.04884 27.3972 7.79335 27.061 7.65462 26.6725L6.08337 22.2775C4.5886 20.5857 3.65264 18.4737 3.40337 16.23C3.08065 16.3995 2.8104 16.654 2.62181 16.9659C2.43323 17.2779 2.33349 17.6355 2.33337 18C2.33337 18.2652 2.22802 18.5196 2.04048 18.7071C1.85294 18.8946 1.59859 19 1.33337 19C1.06816 19 0.813804 18.8946 0.626267 18.7071C0.438731 18.5196 0.333374 18.2652 0.333374 18C0.334902 17.1082 0.634402 16.2425 1.18429 15.5404C1.73418 14.8383 2.50292 14.3401 3.36837 14.125C3.59177 11.3692 4.8434 8.79812 6.87473 6.9224C8.90605 5.04669 11.5685 4.00351 14.3334 4H27.3334C27.5986 4 27.8529 4.10536 28.0405 4.29289C28.228 4.48043 28.3334 4.73478 28.3334 5C28.3334 5.26522 28.228 5.51957 28.0405 5.70711C27.8529 5.89464 27.5986 6 27.3334 6H24.6596C26.3192 7.16437 27.6244 8.76504 28.4309 10.625C28.4846 10.75 28.5371 10.875 28.5871 11C29.338 11.0637 30.0374 11.4077 30.5462 11.9636C31.0551 12.5194 31.3361 13.2464 31.3334 14ZM29.3334 14C29.3334 13.7348 29.228 13.4804 29.0405 13.2929C28.8529 13.1054 28.5986 13 28.3334 13H27.8759C27.6629 13.0002 27.4554 12.9324 27.2836 12.8065C27.1119 12.6806 26.9848 12.5032 26.9209 12.3C26.3479 10.4717 25.2057 8.87428 23.6609 7.74093C22.116 6.60759 20.2494 5.99761 18.3334 6H14.3334C12.5868 5.99991 10.8779 6.50804 9.41508 7.46243C7.95229 8.41682 6.7988 9.77622 6.09528 11.3749C5.39176 12.9735 5.16861 14.7423 5.45305 16.4656C5.73748 18.1889 6.5172 19.7922 7.69712 21.08C7.78735 21.1781 7.85705 21.2933 7.90212 21.4188L9.53838 26H11.1284L11.6059 24.6637C11.6752 24.4696 11.8029 24.3016 11.9713 24.1828C12.1398 24.0639 12.3409 24.0001 12.5471 24H21.1196C21.3258 24.0001 21.5269 24.0639 21.6954 24.1828C21.8639 24.3016 21.9916 24.4696 22.0609 24.6637L22.5384 26H24.1284L26.3921 19.6637C26.4615 19.4696 26.5891 19.3016 26.7576 19.1828C26.9261 19.0639 27.1272 19.0001 27.3334 19H28.3334C28.5986 19 28.8529 18.8946 29.0405 18.7071C29.228 18.5196 29.3334 18.2652 29.3334 18V14Z" fill="#616F82"/>
    </g>
    <defs>
        <clipPath id="clip0_308_4571">
            <rect width="32" height="32" fill="white" transform="translate(0.333374)"/>
        </clipPath>
    </defs>
</svg>
