<svg width="67" height="8" viewBox="0 0 67 8" fill="none" xmlns="http://www.w3.org/2000/svg">
    <path fill-rule="evenodd" clip-rule="evenodd" d="M1.1613 1.16342C0.387099 1.93905 0 2.88459 0 4C0 5.12283 0.387099 6.07206 1.1613 6.84764C1.9498 7.6159 2.89604 8 4.00002 8C5.11111 8 6.05735 7.6159 6.8387 6.84764C7.6129 6.07206 8 5.12283 8 4C8 2.88459 7.60932 1.93905 6.82797 1.16342C6.05377 0.387814 5.11111 0 4.00002 0C2.88889 0 1.94265 0.387814 1.1613 1.16342ZM2.33334 5.7507C1.88173 5.27054 1.65594 4.68699 1.65594 4C1.65594 3.32781 1.88173 2.75163 2.33334 2.27146C2.78496 1.79134 3.34052 1.55126 4.00004 1.55126C4.65951 1.55126 5.21508 1.79134 5.66669 2.27146C6.11831 2.75163 6.34414 3.32781 6.34414 4C6.34414 4.68699 6.11473 5.26685 5.65596 5.73965C5.20435 6.21239 4.65236 6.44879 4.00004 6.44879C3.34052 6.44879 2.78496 6.21608 2.33334 5.7507Z" fill="#2C7DF7"/>
    <path fill-rule="evenodd" clip-rule="evenodd" d="M9.14307 7.42857H10.8066V5.03055H12.3189C12.9814 5.03055 13.5683 4.79253 14.0796 4.31648C14.5981 3.83331 14.8574 3.23292 14.8574 2.51527C14.8574 1.76212 14.5909 1.15463 14.058 0.692768C13.5251 0.230921 12.9454 0 12.3189 0H9.14307V7.42857ZM10.8066 3.53843V1.4921H12.2217C12.4521 1.4921 12.6717 1.57382 12.8806 1.73725C13.0894 1.90065 13.1938 2.16003 13.1938 2.51527C13.1938 2.87764 13.0894 3.14056 12.8806 3.30396C12.679 3.4603 12.4593 3.53843 12.2217 3.53843H10.8066Z" fill="#2C7DF7"/>
    <path d="M22.2856 7.42857H16.5713V0H22.2028V1.4921H18.3932V2.88832H21.9543V4.34844H18.3932V5.9365H22.2856V7.42857Z" fill="#2C7DF7"/>
    <path d="M24.9393 7.42857H23.4287V0H24.8176L28.2036 4.61491V0H29.7144V7.42857H28.4368L24.9393 2.68579V7.42857Z" fill="#2C7DF7"/>
    <circle cx="4.28585" cy="4.28561" r="0.857143" fill="#2C7DF7"/>
    <path d="M37.532 7.42857H36.7533V0.767388H34.8569V0H39.4284V0.767388H37.532V7.42857Z" fill="#2C7DF7"/>
    <path d="M45.7145 7.42857H41.1431V0H45.6346V0.767388H42.0321V3.12277H45.4183V3.89014H42.0321V6.6612H45.7145V7.42857Z" fill="#2C7DF7"/>
    <path d="M51.9999 7.42857H46.2856V6.91699L50.8147 0.767388H46.8041V0H51.9258V0.554212L47.4285 6.6612H51.9999V7.42857Z" fill="#2C7DF7"/>
    <path fill-rule="evenodd" clip-rule="evenodd" d="M53.1431 4C53.1431 5.14917 53.5288 6.10312 54.3 6.86186C55.0789 7.62059 56.0263 8 57.1431 8C58.2668 8 59.2107 7.62059 59.9748 6.86186C60.7534 6.10312 61.1431 5.14917 61.1431 4C61.1431 2.85818 60.7534 1.9079 59.9748 1.14917C59.1963 0.383056 58.2524 0 57.1431 0C56.0337 0 55.0863 0.383056 54.3 1.14917C53.5288 1.9153 53.1431 2.86557 53.1431 4ZM53.9914 4C53.9914 3.08657 54.289 2.32411 54.8843 1.71273C55.4939 1.10129 56.2467 0.79558 57.1431 0.79558C58.0464 0.79558 58.7957 1.10129 59.3909 1.71273C59.9857 2.32411 60.2834 3.08657 60.2834 4C60.2834 4.92078 59.9857 5.68691 59.3909 6.29834C58.7957 6.90238 58.0464 7.20442 57.1431 7.20442C56.2393 7.20442 55.4865 6.90238 54.8843 6.29834C54.289 5.68691 53.9914 4.92078 53.9914 4Z" fill="#2C7DF7"/>
    <path d="M62.2856 6.15467L62.9512 5.81215C63.2961 6.74033 63.8758 7.20442 64.6906 7.20442C65.2803 7.20442 65.6711 7.02395 65.8632 6.66296C66.0092 6.38306 66.082 6.11047 66.082 5.84528C66.082 5.42539 65.9659 5.10497 65.7341 4.88398C65.5023 4.66298 65.1016 4.41254 64.5316 4.13259C63.9022 3.8232 63.4417 3.51749 63.15 3.21545C62.8587 2.91345 62.7127 2.47881 62.7127 1.91162C62.7127 1.35913 62.8918 0.902398 63.2496 0.541437C63.6007 0.18048 64.0545 0 64.6111 0C65.4594 0 66.082 0.40884 66.4796 1.22654L65.8136 1.60223C65.5554 1.06445 65.1512 0.795581 64.6013 0.795581C64.2832 0.795581 64.0179 0.898722 63.8062 1.10497C63.594 1.31122 63.4881 1.57273 63.4881 1.88952C63.4881 2.27992 63.6239 2.58931 63.8955 2.81765C64.1341 2.9871 64.2699 3.08285 64.3029 3.10495L64.8992 3.40331C65.6018 3.74216 66.1017 4.08472 66.4001 4.43092C66.7047 4.76241 66.8571 5.23017 66.8571 5.83425C66.8571 6.46774 66.665 6.9871 66.2808 7.39224C65.9096 7.79739 65.3763 8 64.6808 8C64.1175 8 63.6239 7.8453 63.2 7.53591C62.7824 7.21912 62.4777 6.75875 62.2856 6.15467Z" fill="#2C7DF7"/>
</svg>
